<?xml version="1.0" standalone="no"?><!DOCTYPE svg PUBLIC "-//W3C//DTD SVG 1.1//EN" "http://www.w3.org/Graphics/SVG/1.1/DTD/svg11.dtd"><svg height="1024" node-id="1" sillyvg="true" template-height="1024" template-width="1024" version="1.1" viewBox="0 0 1024 1024" width="1024" xmlns="http://www.w3.org/2000/svg" xmlns:xlink="http://www.w3.org/1999/xlink"><defs node-id="80"></defs><path d="M 0.00 0.00 L 1024.00 0.00 L 1024.00 1024.00 L 0.00 1024.00 Z" fill="#ffffff" fill-rule="nonzero" node-id="82" stroke="none" target-height="1024" target-width="1024" target-x="0" target-y="0"></path><path d="M 508.50 144.30 L 527.10 144.60 L 536.40 145.20 L 536.40 153.30 L 536.90 161.30 L 537.80 169.30 L 539.10 177.20 L 541.30 187.70 L 544.00 198.10 L 547.20 208.40 L 552.50 223.60 L 558.40 238.60 L 565.50 239.60 L 571.50 229.80 L 593.70 190.60 L 599.50 181.00 L 605.80 171.60 L 610.20 171.20 L 626.30 181.30 L 634.00 186.80 L 641.40 192.80 L 651.40 202.10 L 661.10 211.80 L 673.20 225.50 L 678.80 232.70 L 685.90 243.20 L 692.60 254.20 L 697.10 264.20 L 701.00 274.40 L 714.50 316.30 L 708.20 318.30 L 688.70 323.50 L 676.00 327.70 L 670.00 330.30 L 664.10 333.60 L 664.80 338.00 L 671.40 337.20 L 677.90 335.90 L 703.60 328.70 L 716.50 325.80 L 719.30 349.70 L 713.70 351.40 L 707.90 352.60 L 690.30 355.30 L 684.60 356.60 L 677.30 359.10 L 673.80 360.90 L 666.00 353.60 L 663.20 351.40 L 660.20 349.60 L 657.00 348.20 L 642.60 347.60 L 635.50 346.30 L 637.80 343.20 L 639.60 339.90 L 641.00 336.40 L 642.00 332.80 L 642.60 329.00 L 642.80 325.30 L 642.60 321.50 L 641.90 317.80 L 640.90 314.10 L 639.30 311.10 L 637.40 308.30 L 635.10 305.90 L 632.60 303.70 L 628.90 301.20 L 624.90 299.20 L 620.60 297.90 L 616.20 297.10 L 611.80 296.90 L 607.40 297.30 L 604.10 298.10 L 601.00 299.20 L 598.00 300.70 L 595.20 302.70 L 592.60 304.90 L 590.60 307.30 L 588.80 309.90 L 587.50 312.70 L 586.20 316.70 L 585.50 320.90 L 585.40 325.20 L 585.90 329.50 L 586.90 333.70 L 588.50 337.70 L 590.60 341.50 L 593.10 344.90 L 596.10 347.80 L 598.50 349.80 L 603.70 352.70 L 609.40 354.50 L 612.40 354.90 L 617.00 355.10 L 621.50 354.60 L 615.60 364.30 L 613.20 370.10 L 612.50 374.80 L 612.80 377.10 L 613.50 379.40 L 614.90 381.90 L 617.60 384.90 L 620.40 387.40 L 623.40 389.40 L 630.00 392.40 L 638.90 394.70 L 644.50 395.50 L 666.90 397.50 L 675.30 404.10 L 670.70 410.30 L 665.80 416.30 L 660.50 421.90 L 654.80 427.10 L 648.80 431.90 L 642.40 436.30 L 632.30 441.70 L 626.90 443.90 L 613.80 448.00 L 606.10 449.80 L 590.60 452.50 L 580.20 453.60 L 569.80 454.20 L 559.20 454.50 L 543.50 454.30 L 496.20 452.50 L 485.00 452.50 L 473.90 452.00 L 462.70 451.20 L 451.60 449.90 L 440.60 448.10 L 429.70 445.70 L 413.60 441.00 L 405.80 438.20 L 398.00 434.90 L 391.20 431.40 L 384.60 427.30 L 380.40 424.20 L 376.50 420.90 L 372.90 417.20 L 369.70 413.20 L 367.00 408.90 L 364.80 404.20 L 363.90 399.40 L 374.90 395.50 L 385.10 394.70 L 395.30 393.40 L 400.30 392.10 L 404.90 390.30 L 407.90 388.70 L 410.70 386.80 L 414.90 382.70 L 417.10 378.70 L 417.70 376.40 L 417.80 371.90 L 417.20 369.60 L 416.30 367.60 L 415.00 365.60 L 411.90 362.40 L 408.30 359.60 L 404.40 357.20 L 400.30 355.30 L 391.70 352.30 L 386.10 351.70 L 379.30 352.70 L 371.30 355.50 L 359.80 360.70 L 355.20 359.20 L 345.70 357.00 L 316.90 353.10 L 317.70 329.00 L 326.90 330.80 L 336.10 332.90 L 372.30 342.70 L 372.60 338.30 L 372.10 336.40 L 371.00 334.80 L 370.10 334.00 L 361.40 330.80 L 331.90 321.60 L 334.00 292.70 L 334.50 278.20 L 334.60 261.50 L 336.60 255.10 L 342.60 241.60 L 349.30 228.40 L 358.30 217.10 L 367.60 206.10 L 374.10 198.90 L 380.90 192.10 L 388.00 185.60 L 395.80 179.70 L 412.10 168.80 L 416.60 169.40 L 435.80 193.40 L 445.00 205.70 L 456.90 223.40 L 463.30 231.40 L 469.30 236.70 L 472.70 238.90 L 476.30 240.50 L 480.30 241.80 L 482.10 239.20 L 497.00 192.20 L 504.20 165.80 L 508.50 144.30 Z M 595.70 259.20 L 606.60 253.80 L 610.30 252.40 L 615.50 251.30 L 621.90 251.40 L 625.40 252.00 L 631.90 254.40 L 638.10 257.90 L 637.40 255.10 L 636.40 252.50 L 634.90 250.20 L 631.00 246.30 L 628.70 244.80 L 623.50 242.80 L 617.90 242.30 L 615.10 242.60 L 609.80 244.10 L 605.20 246.60 L 602.20 249.20 L 599.60 252.30 L 597.40 255.60 L 595.70 259.20 Z M 390.60 256.50 L 403.30 252.60 L 406.60 252.00 L 412.70 252.10 L 418.20 253.30 L 433.80 259.70 L 432.20 256.20 L 430.10 253.20 L 427.60 250.60 L 424.70 248.40 L 421.60 246.70 L 418.20 245.40 L 414.70 244.60 L 411.10 244.30 L 407.60 244.40 L 404.10 245.10 L 400.80 246.30 L 397.70 248.00 L 393.70 251.50 L 390.60 256.50 Z M 403.00 299.30 L 400.30 300.90 L 395.60 304.70 L 393.70 307.00 L 391.50 310.40 L 389.70 314.00 L 388.50 317.90 L 387.70 321.90 L 387.50 325.90 L 387.80 330.00 L 388.60 334.00 L 389.90 337.70 L 391.80 341.30 L 394.40 344.60 L 397.30 347.40 L 400.60 349.70 L 404.30 351.50 L 408.10 352.80 L 412.10 353.60 L 416.20 353.90 L 420.20 353.70 L 424.30 352.90 L 428.20 351.70 L 431.80 349.90 L 435.20 347.70 L 438.00 344.70 L 440.20 341.60 L 442.00 338.10 L 443.30 334.30 L 444.10 330.50 L 444.50 326.60 L 444.30 322.60 L 443.70 318.70 L 442.60 314.90 L 441.10 311.30 L 439.10 307.90 L 436.60 304.80 L 434.30 302.70 L 429.40 299.40 L 426.60 298.20 L 422.70 297.10 L 418.70 296.50 L 414.70 296.40 L 410.60 296.90 L 406.70 297.90 L 403.00 299.30 Z M 319.60 331.80 L 319.50 341.80 L 319.80 352.00 L 328.90 353.00 L 328.90 342.80 L 328.40 332.80 L 319.60 331.80 Z M 496.00 347.70 L 496.70 352.20 L 497.50 354.10 L 499.30 356.80 L 504.10 361.30 L 512.10 367.50 L 510.80 370.90 L 509.10 373.70 L 507.20 376.10 L 504.80 378.10 L 502.20 379.80 L 499.30 381.10 L 493.10 382.60 L 489.80 382.80 L 484.80 382.60 L 479.90 381.80 L 475.10 380.40 L 470.70 378.60 L 475.00 387.60 L 477.70 391.90 L 480.80 395.90 L 484.20 399.60 L 487.90 402.80 L 491.00 405.00 L 497.70 408.20 L 501.40 409.30 L 511.70 410.70 L 517.10 410.80 L 522.40 410.50 L 527.60 409.70 L 532.60 408.40 L 536.30 407.00 L 539.80 405.20 L 543.00 403.00 L 546.20 400.50 L 552.10 393.40 L 554.70 389.50 L 558.10 382.60 L 559.60 376.60 L 550.70 379.80 L 546.00 380.90 L 541.40 381.60 L 535.10 381.40 L 528.70 379.80 L 525.70 378.20 L 523.80 376.90 L 520.80 373.50 L 519.80 371.60 L 519.30 369.50 L 519.10 367.20 L 521.00 365.00 L 527.70 358.60 L 529.60 356.40 L 531.10 353.90 L 531.70 352.20 L 531.90 350.20 L 531.80 348.00 L 524.00 346.50 L 520.00 346.20 L 507.90 346.50 L 496.00 347.70 Z" fill="#fdfdfd" fill-rule="nonzero" node-id="84" stroke="none" target-height="310.2" target-width="402.4" target-x="316.9" target-y="144.3"></path><path d="M 285.00 419.70 L 303.60 413.80 L 313.10 411.60 L 317.00 418.40 L 321.20 424.90 L 325.80 431.10 L 330.70 437.00 L 336.00 442.70 L 341.70 448.00 L 347.60 452.90 L 353.80 457.50 L 360.30 461.70 L 367.00 465.50 L 374.00 468.90 L 381.20 471.80 L 391.30 475.30 L 401.50 478.10 L 411.90 480.50 L 432.80 483.90 L 443.40 485.00 L 459.30 486.10 L 475.30 486.70 L 507.10 487.20 L 543.00 485.50 L 560.90 484.40 L 590.70 481.50 L 614.20 477.80 L 625.90 475.30 L 637.50 472.30 L 649.00 468.80 L 655.60 480.80 L 661.80 493.00 L 667.60 505.50 L 672.90 518.10 L 677.90 530.80 L 682.30 543.80 L 670.80 559.90 L 665.50 568.20 L 660.70 576.90 L 656.20 588.30 L 653.10 600.10 L 651.40 612.20 L 651.20 624.50 L 651.60 630.60 L 652.50 636.70 L 653.70 642.60 L 655.40 648.50 L 661.30 661.80 L 665.80 669.90 L 670.80 677.70 L 676.30 685.20 L 682.20 692.40 L 688.50 699.20 L 695.20 705.70 L 702.20 711.80 L 698.60 721.40 L 694.50 730.80 L 688.10 742.90 L 684.40 748.70 L 680.40 754.20 L 675.90 759.30 L 671.00 764.20 L 666.60 767.50 L 662.00 770.30 L 657.20 772.70 L 649.70 775.80 L 618.40 785.50 L 610.90 788.60 L 622.20 795.20 L 621.60 801.70 L 621.60 808.20 L 622.50 821.30 L 615.00 816.50 L 611.50 813.70 L 608.50 810.50 L 606.70 808.20 L 604.10 802.90 L 602.30 796.40 L 601.10 789.80 L 600.40 783.20 L 600.30 776.50 L 600.60 769.90 L 601.30 763.20 L 602.90 753.20 L 605.10 743.50 L 606.30 738.90 L 613.60 721.80 L 614.90 717.40 L 610.90 722.00 L 603.70 731.90 L 599.00 739.80 L 594.80 748.00 L 589.70 751.10 L 585.60 754.30 L 573.80 764.90 L 569.50 768.00 L 565.10 770.80 L 555.80 775.20 L 551.00 776.90 L 544.30 778.70 L 537.60 779.90 L 530.70 780.60 L 523.80 780.80 L 516.90 780.60 L 503.00 779.00 L 489.70 776.10 L 485.00 774.50 L 480.60 772.50 L 472.50 767.40 L 465.20 761.20 L 444.60 740.70 L 442.20 737.00 L 433.80 720.80 L 431.30 717.10 L 429.30 714.90 L 424.60 711.30 L 431.60 729.20 L 434.70 738.30 L 437.40 747.60 L 439.60 757.00 L 441.20 766.40 L 442.00 773.50 L 442.30 780.70 L 442.20 787.90 L 441.60 795.10 L 438.50 790.60 L 436.70 788.90 L 432.40 786.60 L 430.00 785.90 L 424.50 785.70 L 418.00 784.90 L 411.80 783.70 L 405.80 782.00 L 400.00 779.90 L 394.30 777.40 L 388.80 774.50 L 383.50 771.20 L 378.40 767.60 L 368.90 759.40 L 360.40 750.20 L 355.30 743.50 L 350.70 736.40 L 346.50 729.10 L 343.00 721.40 L 340.00 713.70 L 337.50 705.70 L 345.00 701.20 L 352.20 696.30 L 359.10 690.80 L 368.70 681.70 L 377.10 671.70 L 380.90 666.20 L 384.20 660.60 L 387.00 654.70 L 391.20 643.40 L 392.50 638.20 L 393.50 633.00 L 393.90 627.70 L 394.00 620.60 L 393.50 613.50 L 392.40 606.50 L 390.70 599.50 L 388.50 592.70 L 385.80 586.00 L 382.70 579.50 L 379.20 573.30 L 375.40 567.40 L 371.20 562.10 L 366.70 557.20 L 361.90 552.70 L 351.50 544.50 L 337.30 535.80 L 318.30 525.10 L 312.10 507.80 L 300.70 472.70 L 285.00 419.70 Z M 547.70 578.30 L 546.70 587.60 L 546.70 592.30 L 547.20 597.10 L 548.00 601.60 L 549.40 606.10 L 552.40 612.40 L 556.60 618.00 L 559.30 620.10 L 562.00 621.80 L 564.90 623.10 L 571.10 624.70 L 579.30 625.20 L 584.20 624.90 L 593.80 623.40 L 599.60 621.20 L 605.00 618.60 L 610.20 615.60 L 615.10 612.10 L 624.40 604.30 L 630.80 597.80 L 636.80 590.90 L 648.00 576.50 L 612.00 600.50 L 612.80 595.90 L 599.10 599.30 L 594.50 600.20 L 589.90 600.70 L 572.40 599.60 L 566.00 599.60 L 559.60 600.10 L 558.00 592.00 L 558.00 584.20 L 558.70 579.10 L 560.00 574.10 L 561.80 569.20 L 566.60 559.80 L 569.50 555.30 L 574.40 548.80 L 579.60 542.60 L 590.60 531.30 L 584.00 534.50 L 577.80 538.30 L 571.80 542.60 L 567.60 546.20 L 563.70 550.00 L 560.10 554.10 L 556.80 558.50 L 553.90 563.10 L 551.40 567.90 L 549.30 573.00 L 547.70 578.30 Z" fill="#fdfdfd" fill-rule="nonzero" node-id="86" stroke="none" target-height="409.69998" target-width="417.2" target-x="285" target-y="411.6"></path><path d="M 514.50 886.80 L 516.50 885.70 L 517.90 885.30 L 519.00 885.40 L 519.90 885.90 L 520.60 886.90 L 521.10 888.50 L 519.20 889.50 L 517.70 889.80 L 516.60 889.70 L 515.80 889.20 L 515.10 888.30 L 514.50 886.80 Z" fill="#fdfdfd" fill-rule="nonzero" node-id="88" stroke="none" target-height="4.5" target-width="6.5999756" target-x="514.5" target-y="885.3"></path><path d="M 486.20 875.10 L 487.70 874.30 L 489.40 874.10 L 490.20 874.70 L 490.70 875.90 L 490.80 879.20 L 490.10 885.70 L 496.60 883.30 L 498.80 883.10 L 500.10 883.40 L 501.30 884.20 L 503.70 886.90 L 504.40 888.40 L 504.80 890.00 L 504.10 900.40 L 500.70 901.70 L 496.50 893.40 L 501.20 893.00 L 498.60 886.80 L 492.10 888.00 L 490.50 902.10 L 488.90 900.30 L 487.70 898.40 L 486.90 896.30 L 486.30 893.00 L 486.60 878.40 L 486.20 875.10 Z" fill="#351a22" fill-rule="nonzero" node-id="90" stroke="none" target-height="28" target-width="18.599976" target-x="486.2" target-y="874.1"></path><path d="M 537.40 886.60 L 538.00 889.10 L 538.40 889.50 L 539.30 889.60 L 540.90 888.20 L 541.40 886.30 L 540.80 885.80 L 540.20 885.70 L 537.40 886.60 Z" fill="#fdfcfd" fill-rule="nonzero" node-id="92" stroke="none" target-height="3.8999634" target-width="4" target-x="537.4" target-y="885.7"></path><path d="M 745.60 648.00 L 752.90 651.70 L 757.70 653.80 L 762.70 655.40 L 767.80 656.60 L 780.20 658.60 L 778.70 665.90 L 776.60 673.00 L 774.00 680.00 L 770.80 686.70 L 767.20 693.20 L 763.10 699.40 L 758.50 705.20 L 753.50 710.70 L 748.10 715.80 L 739.20 722.50 L 729.40 728.00 L 727.70 722.30 L 734.40 712.00 L 735.60 709.20 L 736.50 706.20 L 740.50 687.00 L 743.90 667.60 L 745.00 657.80 L 745.60 648.00 Z" fill="#fdfefd" fill-rule="nonzero" node-id="94" stroke="none" target-height="80" target-width="52.5" target-x="727.7" target-y="648"></path><path d="M 606.90 157.70 L 621.60 146.50 L 629.30 141.20 L 637.20 136.20 L 645.30 131.60 L 653.60 127.40 L 662.10 123.50 L 670.70 120.20 L 679.50 117.30 L 688.50 115.00 L 697.60 113.30 L 706.90 112.20 L 713.00 112.20 L 716.00 112.80 L 718.70 114.00 L 720.20 115.20 L 721.50 116.70 L 722.60 118.50 L 726.00 126.50 L 727.10 130.70 L 728.30 137.10 L 729.50 150.10 L 729.70 156.60 L 729.20 168.90 L 728.10 181.20 L 726.30 193.40 L 721.50 217.50 L 718.50 229.50 L 708.50 265.00 L 722.50 296.80 L 725.70 304.90 L 728.50 313.10 L 755.70 308.90 L 769.40 308.00 L 770.60 311.70 L 768.40 314.30 L 762.30 316.10 L 756.00 317.40 L 730.80 321.40 L 733.60 335.10 L 735.30 349.10 L 753.80 347.10 L 763.00 346.50 L 772.30 346.30 L 781.60 346.50 L 790.80 347.30 L 790.60 353.80 L 781.40 354.40 L 753.70 355.40 L 744.50 356.00 L 735.30 357.00 L 732.30 378.90 L 758.30 381.20 L 775.60 383.80 L 784.10 385.50 L 783.80 388.80 L 782.90 391.70 L 781.30 392.80 L 780.00 393.00 L 746.90 388.30 L 730.30 387.00 L 725.40 401.00 L 722.50 407.80 L 752.00 417.10 L 759.20 419.80 L 766.30 423.00 L 762.40 428.30 L 747.50 424.40 L 718.10 415.40 L 713.50 422.70 L 708.50 429.60 L 703.10 436.30 L 697.20 442.50 L 691.00 448.40 L 684.40 453.90 L 677.50 459.00 L 670.30 463.70 L 662.80 467.90 L 676.00 494.10 L 682.10 507.50 L 691.10 530.20 L 697.10 548.90 L 703.10 571.10 L 708.60 593.50 L 713.60 616.00 L 718.30 638.60 L 726.90 684.00 L 728.50 676.60 L 729.60 669.20 L 730.30 661.80 L 730.40 646.80 L 730.00 639.40 L 728.70 628.20 L 726.90 617.00 L 724.70 606.00 L 722.30 595.10 L 715.40 569.30 L 713.30 560.70 L 711.60 552.00 L 710.60 543.20 L 710.20 537.40 L 710.30 531.40 L 711.30 520.90 L 712.20 516.30 L 715.20 507.40 L 717.20 503.20 L 719.60 499.10 L 722.30 495.30 L 725.40 491.90 L 728.80 488.70 L 732.50 486.00 L 736.50 483.70 L 740.90 481.80 L 743.80 480.90 L 746.70 480.40 L 749.70 480.30 L 755.60 481.30 L 758.40 482.40 L 763.60 485.50 L 767.80 489.80 L 769.50 492.30 L 772.20 498.30 L 773.80 504.90 L 774.60 515.20 L 774.70 530.90 L 775.10 536.10 L 776.00 541.20 L 777.50 546.20 L 791.00 583.90 L 794.80 596.60 L 797.00 605.20 L 798.70 613.90 L 800.90 630.80 L 801.50 638.80 L 801.60 646.90 L 801.30 655.00 L 800.60 663.10 L 799.50 671.00 L 798.00 679.00 L 796.00 686.80 L 793.70 694.60 L 791.00 702.20 L 787.80 709.60 L 784.30 716.90 L 780.40 723.40 L 776.10 729.60 L 771.40 735.30 L 766.20 740.60 L 760.70 745.60 L 754.80 750.30 L 742.30 758.70 L 735.80 762.40 L 725.70 767.50 L 715.50 772.10 L 708.30 784.90 L 700.50 797.50 L 698.10 801.20 L 692.60 807.70 L 687.90 812.00 L 677.60 819.60 L 661.30 829.90 L 658.50 830.90 L 652.70 832.10 L 639.30 832.90 L 630.50 833.90 L 626.10 833.90 L 621.80 833.50 L 615.30 832.50 L 596.20 827.50 L 559.20 829.80 L 540.60 830.70 L 522.00 831.10 L 509.70 831.10 L 484.90 830.00 L 447.90 829.00 L 441.80 829.20 L 435.70 829.90 L 424.50 831.60 L 414.50 832.10 L 406.90 831.70 L 399.40 830.90 L 384.40 828.80 L 367.90 818.20 L 359.90 812.60 L 352.20 806.60 L 347.30 802.30 L 342.70 797.80 L 333.60 787.10 L 329.30 781.10 L 325.40 774.90 L 321.90 768.40 L 315.90 754.80 L 311.40 740.70 L 308.40 726.20 L 306.90 711.50 L 306.70 701.80 L 307.40 682.50 L 309.50 663.30 L 313.60 639.50 L 317.70 620.90 L 318.10 616.60 L 317.70 608.10 L 316.10 599.60 L 312.30 587.10 L 289.20 519.40 L 279.30 488.50 L 272.40 463.50 L 269.40 450.80 L 266.90 438.10 L 264.90 425.20 L 261.10 424.50 L 257.60 423.20 L 254.60 421.50 L 251.80 419.20 L 249.30 416.60 L 247.10 413.60 L 243.80 407.00 L 241.80 399.70 L 241.20 392.50 L 236.60 390.20 L 232.20 387.30 L 229.50 385.10 L 227.10 382.70 L 223.80 377.80 L 222.40 373.00 L 222.00 367.20 L 222.40 364.30 L 223.10 361.60 L 225.50 356.50 L 230.00 350.80 L 233.20 347.80 L 240.20 342.70 L 239.80 334.80 L 240.10 330.90 L 241.00 327.00 L 243.00 322.30 L 246.10 318.30 L 248.10 316.70 L 253.10 314.10 L 258.30 312.90 L 262.20 313.00 L 266.20 313.70 L 270.00 314.80 L 273.90 316.40 L 281.10 320.00 L 283.70 317.50 L 286.50 315.40 L 289.40 313.60 L 292.60 312.20 L 295.90 311.20 L 299.20 310.70 L 302.70 310.60 L 306.30 310.90 L 313.30 289.10 L 320.90 267.50 L 319.30 261.40 L 317.20 255.40 L 309.70 237.80 L 307.70 231.80 L 300.90 208.60 L 298.00 196.80 L 295.70 184.90 L 293.60 168.90 L 293.20 160.90 L 293.10 152.90 L 293.60 144.90 L 294.70 136.90 L 296.30 130.50 L 297.60 127.20 L 300.40 122.30 L 303.60 119.60 L 305.40 118.70 L 307.50 118.20 L 310.10 118.20 L 325.00 118.50 L 339.70 120.50 L 349.30 122.50 L 358.90 125.10 L 368.30 128.20 L 377.60 131.80 L 386.70 135.80 L 395.70 140.10 L 408.80 147.10 L 421.60 154.70 L 439.30 147.30 L 448.30 144.10 L 457.40 141.10 L 476.00 136.50 L 485.40 134.70 L 494.80 133.50 L 504.40 132.80 L 513.40 132.50 L 522.30 132.60 L 531.20 133.10 L 540.00 134.10 L 548.90 135.50 L 557.60 137.40 L 566.20 139.70 L 574.70 142.40 L 583.00 145.60 L 591.20 149.20 L 599.10 153.20 L 606.90 157.70 Z M 695.30 124.90 L 687.50 127.20 L 679.80 129.90 L 665.00 136.40 L 650.80 144.20 L 640.40 150.60 L 610.20 171.20 L 605.80 171.60 L 586.20 160.80 L 586.30 160.40 L 566.40 151.60 L 559.00 149.40 L 551.50 147.60 L 544.00 146.20 L 536.40 145.20 L 517.80 144.30 L 508.50 144.30 L 493.10 145.50 L 477.90 147.60 L 466.80 150.30 L 455.80 153.40 L 445.00 157.10 L 416.60 169.50 L 412.10 168.80 L 400.40 161.50 L 380.20 149.70 L 363.60 141.50 L 355.00 137.90 L 346.30 134.80 L 337.50 132.20 L 330.80 130.60 L 317.00 128.60 L 310.00 128.20 L 307.60 137.50 L 307.60 147.80 L 308.00 157.90 L 309.00 168.10 L 310.40 178.20 L 312.30 188.20 L 314.60 198.10 L 317.30 208.00 L 320.50 217.70 L 327.80 236.70 L 336.60 255.10 L 335.10 259.30 L 334.40 263.70 L 331.00 272.40 L 327.90 281.10 L 325.20 290.10 L 322.90 299.10 L 319.00 317.30 L 337.80 323.60 L 368.80 333.30 L 371.00 334.80 L 372.10 336.40 L 372.60 338.30 L 372.30 342.70 L 336.10 332.90 L 326.90 330.80 L 317.70 329.00 L 316.90 353.10 L 345.70 357.00 L 355.20 359.20 L 359.80 360.70 L 359.60 364.20 L 317.40 360.80 L 319.30 379.40 L 329.40 379.60 L 359.60 379.40 L 359.80 386.30 L 353.40 385.80 L 347.00 385.90 L 321.30 387.60 L 327.50 405.70 L 336.70 405.00 L 345.90 403.70 L 355.00 401.80 L 363.90 399.40 L 364.80 404.20 L 332.50 413.50 L 336.90 420.00 L 341.70 426.00 L 346.90 431.70 L 352.40 436.90 L 358.30 441.80 L 364.40 446.40 L 370.80 450.60 L 377.50 454.50 L 386.70 459.10 L 396.20 463.20 L 405.90 466.80 L 415.80 470.00 L 425.70 472.60 L 435.60 474.90 L 446.50 476.90 L 468.40 479.90 L 485.00 481.20 L 501.60 481.90 L 518.30 482.10 L 534.90 482.00 L 559.00 480.70 L 571.00 479.60 L 583.10 478.00 L 595.00 476.00 L 606.80 473.50 L 618.50 470.50 L 630.00 466.90 L 641.40 462.80 L 649.80 459.00 L 657.90 454.80 L 665.60 450.00 L 673.10 444.60 L 680.10 438.80 L 686.80 432.60 L 691.40 427.60 L 699.90 416.80 L 703.70 411.00 L 675.30 404.10 L 666.90 397.50 L 673.70 397.80 L 680.50 398.70 L 707.20 404.50 L 714.90 385.20 L 693.60 383.90 L 686.50 384.10 L 687.30 383.80 L 673.30 382.80 L 674.40 377.10 L 685.00 377.00 L 716.60 377.50 L 719.00 358.90 L 690.80 362.60 L 676.60 363.70 L 673.80 360.90 L 677.30 359.10 L 684.60 356.60 L 690.30 355.30 L 707.90 352.60 L 713.70 351.40 L 719.30 349.70 L 716.50 325.80 L 703.60 328.70 L 684.40 334.30 L 671.40 337.20 L 664.80 338.00 L 664.10 333.60 L 670.00 330.40 L 676.00 327.70 L 682.30 325.50 L 714.50 316.30 L 701.00 274.40 L 697.10 264.20 L 692.60 254.20 L 698.10 238.70 L 703.20 223.10 L 706.30 212.50 L 711.40 191.20 L 713.30 180.40 L 714.70 169.60 L 715.60 158.70 L 715.80 150.60 L 715.60 142.40 L 715.00 134.20 L 714.00 125.90 L 713.80 126.10 L 711.90 124.90 L 708.00 123.60 L 704.90 123.50 L 701.60 123.70 L 695.30 124.90 Z M 254.70 322.70 L 252.70 324.20 L 251.10 325.80 L 250.10 327.70 L 248.80 331.80 L 248.80 337.50 L 249.40 340.90 L 251.20 347.50 L 243.90 351.00 L 240.30 353.10 L 235.00 357.50 L 232.10 361.80 L 231.20 364.20 L 230.70 366.90 L 230.70 369.80 L 231.10 372.30 L 231.90 374.40 L 233.00 376.20 L 235.10 378.60 L 237.70 380.60 L 249.50 387.00 L 251.90 400.50 L 253.20 404.80 L 254.50 407.40 L 256.20 409.90 L 258.30 412.30 L 264.60 412.70 L 271.60 411.90 L 278.20 409.80 L 281.40 408.20 L 284.10 406.40 L 286.40 404.10 L 287.90 402.20 L 289.90 397.90 L 290.40 395.30 L 304.60 395.60 L 301.30 380.80 L 291.20 377.00 L 282.90 380.90 L 277.00 382.40 L 274.00 382.70 L 271.80 383.60 L 272.10 381.50 L 271.00 379.50 L 266.40 374.20 L 265.20 371.60 L 265.00 370.00 L 270.10 357.40 L 273.20 356.00 L 276.50 355.00 L 279.80 354.60 L 283.10 354.90 L 287.30 356.30 L 289.30 357.60 L 290.60 360.70 L 291.90 367.30 L 292.70 377.40 L 300.80 377.60 L 299.60 361.10 L 293.10 358.10 L 299.30 353.30 L 300.60 337.20 L 301.70 329.20 L 303.30 321.30 L 299.10 320.90 L 297.20 321.20 L 294.50 322.30 L 292.00 323.80 L 282.30 331.40 L 275.50 327.70 L 276.50 326.20 L 271.40 323.30 L 265.80 321.00 L 263.00 320.40 L 260.20 320.40 L 256.50 321.50 L 254.70 322.70 Z M 275.80 360.50 L 271.00 369.70 L 273.50 372.20 L 276.70 374.40 L 278.40 375.10 L 279.80 375.10 L 281.50 374.00 L 283.70 369.90 L 284.00 368.30 L 283.90 365.80 L 283.30 363.50 L 282.60 362.10 L 280.50 360.30 L 279.20 359.80 L 277.70 359.90 L 275.80 360.50 Z M 285.00 419.70 L 275.20 422.40 L 280.30 445.60 L 288.50 474.20 L 293.90 491.20 L 305.60 524.90 L 306.50 524.90 L 321.20 564.90 L 324.20 574.50 L 327.20 580.50 L 329.50 586.70 L 331.20 593.00 L 332.40 599.40 L 333.20 605.90 L 333.40 612.50 L 332.70 625.70 L 331.90 632.30 L 330.00 642.00 L 327.70 651.60 L 325.90 666.30 L 324.50 680.90 L 323.70 695.60 L 323.30 710.40 L 323.90 718.60 L 325.00 726.80 L 326.50 734.90 L 328.60 743.00 L 331.20 750.90 L 334.30 758.60 L 337.90 766.00 L 342.00 773.10 L 346.60 780.00 L 350.50 784.80 L 354.60 789.40 L 359.00 793.70 L 363.80 797.80 L 363.50 792.10 L 363.80 786.50 L 365.10 779.10 L 366.20 775.50 L 368.20 778.80 L 369.80 782.30 L 373.50 793.30 L 376.50 800.40 L 380.30 806.10 L 382.10 808.10 L 384.20 809.90 L 387.70 812.20 L 391.40 814.20 L 399.20 817.40 L 396.10 804.60 L 395.40 800.30 L 395.10 791.50 L 397.60 796.30 L 401.70 810.60 L 404.40 815.80 L 406.70 817.70 L 409.00 818.50 L 416.20 820.20 L 417.70 818.40 L 418.70 816.50 L 419.20 814.40 L 419.60 811.20 L 419.50 798.20 L 420.70 793.90 L 422.40 797.60 L 423.50 801.40 L 424.80 809.30 L 425.40 817.30 L 428.50 816.00 L 431.20 814.30 L 433.40 812.20 L 437.00 807.10 L 438.40 804.20 L 441.60 795.10 L 442.20 787.90 L 442.30 780.70 L 442.00 773.50 L 441.20 766.40 L 439.60 757.00 L 437.40 747.60 L 434.70 738.30 L 431.60 729.20 L 424.60 711.30 L 429.30 714.90 L 431.30 717.10 L 433.80 720.80 L 442.20 737.00 L 444.60 740.70 L 450.30 757.20 L 452.70 765.70 L 454.70 774.20 L 455.60 779.90 L 456.10 785.60 L 456.10 791.40 L 455.60 797.10 L 454.50 802.80 L 452.70 808.60 L 467.80 810.50 L 482.90 811.70 L 498.10 812.30 L 513.30 812.40 L 528.50 812.00 L 543.70 811.20 L 566.40 809.40 L 589.10 807.20 L 587.80 802.30 L 586.90 797.30 L 586.50 792.40 L 586.70 782.50 L 588.60 770.10 L 590.30 762.80 L 594.20 748.30 L 594.80 748.00 L 599.00 739.80 L 603.70 731.90 L 610.90 722.00 L 614.90 717.40 L 613.60 721.80 L 606.30 738.90 L 602.90 753.20 L 601.30 763.20 L 600.60 769.90 L 600.30 776.50 L 600.40 783.20 L 601.10 789.80 L 602.30 796.40 L 604.10 802.90 L 606.70 808.20 L 608.50 810.50 L 611.50 813.70 L 615.00 816.50 L 622.50 821.30 L 621.60 808.20 L 621.60 801.70 L 622.20 795.20 L 624.50 796.50 L 627.00 812.20 L 628.10 815.90 L 629.80 819.50 L 631.90 820.50 L 634.10 820.80 L 643.20 820.10 L 644.30 815.70 L 647.20 798.20 L 648.30 793.90 L 649.30 798.00 L 650.40 806.40 L 650.60 819.20 L 661.00 810.80 L 665.20 805.60 L 667.60 801.20 L 669.50 796.60 L 674.60 777.20 L 677.70 780.20 L 678.70 781.80 L 679.70 784.60 L 680.50 790.90 L 680.10 800.30 L 686.10 792.40 L 691.70 784.10 L 696.80 775.40 L 700.20 768.70 L 703.20 761.80 L 705.90 754.80 L 708.10 747.60 L 709.90 740.40 L 711.10 733.00 L 711.90 725.60 L 712.10 718.00 L 710.60 694.40 L 707.10 665.00 L 704.30 647.40 L 699.10 619.70 L 695.30 597.10 L 688.90 565.80 L 686.40 558.40 L 684.30 550.90 L 682.70 543.40 L 682.30 543.80 L 677.90 530.80 L 672.90 518.10 L 667.60 505.50 L 661.80 493.00 L 655.60 480.80 L 649.00 468.80 L 637.50 472.30 L 625.90 475.30 L 614.20 477.80 L 590.70 481.50 L 560.90 484.40 L 543.00 485.50 L 507.10 487.20 L 475.30 486.70 L 459.30 486.10 L 443.40 485.00 L 432.80 483.90 L 411.90 480.50 L 401.50 478.10 L 391.30 475.30 L 381.20 471.80 L 374.00 468.90 L 367.00 465.50 L 360.30 461.70 L 353.80 457.50 L 347.60 452.90 L 341.70 448.00 L 336.00 442.70 L 330.70 437.00 L 325.80 431.10 L 321.20 424.90 L 317.00 418.40 L 313.10 411.60 L 303.60 413.80 L 285.00 419.70 Z M 725.20 523.10 L 724.50 529.00 L 724.10 534.90 L 724.20 540.80 L 725.50 552.60 L 728.80 567.20 L 734.70 587.40 L 740.30 611.20 L 742.60 623.20 L 744.30 635.30 L 745.50 647.40 L 748.30 649.40 L 745.60 648.00 L 745.00 657.80 L 743.90 667.60 L 740.50 687.00 L 736.50 706.20 L 735.60 709.20 L 734.40 712.00 L 727.70 722.30 L 722.10 753.20 L 736.50 745.20 L 743.40 740.70 L 750.00 735.80 L 754.10 732.20 L 761.80 724.40 L 765.80 719.30 L 769.50 714.00 L 772.90 708.50 L 775.90 702.80 L 779.40 694.90 L 782.30 686.80 L 784.80 678.50 L 786.70 670.10 L 788.20 661.60 L 789.20 653.10 L 790.30 652.80 L 781.90 599.10 L 777.50 584.10 L 774.80 576.70 L 769.00 563.10 L 766.70 556.60 L 765.00 550.00 L 763.60 543.20 L 762.10 529.60 L 761.80 519.30 L 762.30 506.70 L 761.40 502.40 L 760.50 500.40 L 758.00 496.90 L 756.30 495.50 L 752.50 493.70 L 750.40 493.30 L 748.30 493.40 L 745.90 494.10 L 742.20 495.90 L 738.80 498.20 L 735.80 501.00 L 733.20 504.20 L 730.90 507.60 L 727.40 515.20 L 725.20 523.10 Z" fill="#341922" fill-rule="nonzero" node-id="96" stroke="none" target-height="721.7" target-width="579.6" target-x="222" target-y="112.2"></path><path d="M 338.30 792.90 L 342.70 797.80 L 347.30 802.30 L 352.20 806.60 L 359.90 812.60 L 367.90 818.20 L 384.40 828.80 L 377.90 829.40 L 371.50 829.50 L 355.50 828.50 L 326.70 824.80 L 310.50 822.00 L 299.80 819.30 L 294.80 817.30 L 288.60 813.70 L 285.70 811.40 L 289.60 808.60 L 293.70 806.40 L 302.30 803.20 L 311.50 801.20 L 339.70 797.60 L 338.30 792.90 Z" fill="#a393a6" fill-rule="nonzero" node-id="98" stroke="none" target-height="36.599976" target-width="98.69998" target-x="285.7" target-y="792.9"></path><path d="M 550.90 875.70 L 552.20 874.10 L 553.60 873.20 L 555.00 872.80 L 556.60 873.00 L 558.50 873.90 L 558.40 879.50 L 557.30 880.30 L 555.90 880.60 L 553.10 880.20 L 551.90 879.50 L 551.00 878.50 L 550.60 877.30 L 550.90 875.70 Z" fill="#311922" fill-rule="nonzero" node-id="100" stroke="none" target-height="7.799988" target-width="7.9000244" target-x="550.6" target-y="872.8"></path><path d="M 508.60 893.50 L 508.60 889.90 L 510.00 886.70 L 511.10 885.30 L 513.90 883.20 L 517.30 882.00 L 520.80 882.20 L 522.50 882.80 L 529.90 891.40 L 530.40 889.20 L 531.30 887.40 L 532.40 885.90 L 535.40 883.70 L 538.90 882.50 L 542.50 882.60 L 545.60 884.00 L 546.90 885.20 L 547.90 886.60 L 548.60 888.50 L 549.00 890.80 L 534.50 889.70 L 535.00 892.20 L 535.80 894.00 L 536.80 895.20 L 538.10 896.20 L 539.60 896.70 L 541.40 896.90 L 544.20 896.50 L 547.20 895.40 L 546.40 897.40 L 545.20 899.10 L 543.60 900.50 L 541.70 901.30 L 540.40 901.50 L 537.50 900.80 L 534.70 898.50 L 527.00 890.70 L 522.00 891.90 L 516.90 892.50 L 511.70 892.60 L 513.20 895.60 L 514.20 896.50 L 516.00 897.50 L 520.40 898.20 L 527.30 898.00 L 525.90 899.60 L 524.20 900.70 L 520.40 901.80 L 516.50 901.60 L 512.90 900.00 L 510.00 897.30 L 509.10 895.60 L 508.60 893.50 Z M 514.50 886.80 L 515.10 888.30 L 515.80 889.20 L 516.60 889.70 L 517.70 889.80 L 519.20 889.50 L 521.10 888.50 L 520.60 886.90 L 519.90 885.90 L 519.00 885.40 L 517.90 885.30 L 516.50 885.70 L 514.50 886.80 Z M 537.40 886.60 L 538.00 889.10 L 538.40 889.50 L 539.30 889.60 L 540.90 888.20 L 541.40 887.20 L 541.40 886.30 L 540.20 885.70 L 537.40 886.60 Z" fill="#311922" fill-rule="nonzero" node-id="102" stroke="none" target-height="19.799988" target-width="40.399994" target-x="508.6" target-y="882"></path><path d="M 501.90 352.80 L 514.30 352.70 L 526.70 353.10 L 522.70 354.30 L 518.50 355.00 L 514.30 355.20 L 510.10 354.80 L 506.00 354.00 L 501.90 352.80 Z" fill="#b3a4b6" fill-rule="nonzero" node-id="104" stroke="none" target-height="2.5" target-width="24.800018" target-x="501.9" target-y="352.7"></path><path d="M 695.30 124.90 L 701.60 123.70 L 704.90 123.50 L 708.00 123.60 L 711.90 124.90 L 713.80 126.10 L 703.30 135.50 L 695.30 140.50 L 687.70 146.00 L 680.40 151.90 L 673.30 158.20 L 660.00 171.50 L 650.50 182.00 L 641.40 192.80 L 634.00 186.80 L 626.30 181.30 L 610.20 171.20 L 640.40 150.60 L 657.90 140.20 L 672.30 133.00 L 679.80 129.90 L 687.50 127.20 L 695.30 124.90 Z" fill="#eca854" fill-rule="nonzero" node-id="106" stroke="none" target-height="69.3" target-width="103.599976" target-x="610.2" target-y="123.5"></path><path d="M 713.80 126.10 L 714.00 125.90 L 715.00 134.20 L 715.60 142.40 L 715.80 150.60 L 715.60 158.70 L 714.70 169.60 L 713.30 180.40 L 711.40 191.20 L 706.30 212.50 L 698.10 238.70 L 692.60 254.20 L 685.90 243.20 L 678.80 232.70 L 683.00 225.30 L 686.90 217.80 L 690.30 210.00 L 693.50 202.10 L 696.20 194.10 L 698.50 185.90 L 700.40 177.70 L 701.90 169.30 L 703.00 160.90 L 703.60 152.40 L 703.70 144.00 L 703.30 135.50 L 713.80 126.10 Z" fill="#e6908b" fill-rule="nonzero" node-id="108" stroke="none" target-height="128.29999" target-width="37" target-x="678.8" target-y="125.9"></path><path d="M 310.00 128.20 L 317.00 128.60 L 330.80 130.60 L 337.50 132.20 L 346.30 134.80 L 355.00 137.90 L 363.60 141.50 L 380.20 149.70 L 400.40 161.50 L 412.10 168.80 L 395.80 179.70 L 388.00 185.60 L 364.10 165.90 L 357.90 161.30 L 346.40 153.80 L 320.20 138.80 L 315.60 132.50 L 307.60 137.50 L 310.00 128.20 Z" fill="#f1aa55" fill-rule="nonzero" node-id="110" stroke="none" target-height="57.40001" target-width="104.5" target-x="307.6" target-y="128.2"></path><path d="M 307.60 137.50 L 315.60 132.50 L 320.20 138.80 L 319.70 143.40 L 319.70 147.90 L 320.10 152.40 L 321.20 159.10 L 326.30 179.00 L 328.90 187.70 L 332.10 196.30 L 335.80 204.60 L 344.50 220.70 L 349.30 228.40 L 342.60 241.60 L 336.60 255.10 L 332.00 246.00 L 324.00 227.30 L 320.50 217.70 L 317.30 208.00 L 314.60 198.10 L 312.30 188.20 L 310.40 178.20 L 309.00 168.10 L 308.00 157.90 L 307.60 147.80 L 307.60 137.50 Z" fill="#e4985c" fill-rule="nonzero" node-id="112" stroke="none" target-height="122.600006" target-width="41.69998" target-x="307.6" target-y="132.5"></path><path d="M 641.40 192.80 L 650.50 182.00 L 660.00 171.50 L 673.30 158.20 L 680.40 151.90 L 687.70 146.00 L 695.30 140.50 L 703.30 135.50 L 703.70 144.00 L 703.60 152.40 L 703.00 160.90 L 701.90 169.30 L 700.40 177.70 L 698.50 185.90 L 696.20 194.10 L 693.50 202.10 L 690.30 210.00 L 686.90 217.80 L 683.00 225.30 L 678.80 232.70 L 673.20 225.50 L 661.10 211.80 L 651.40 202.10 L 641.40 192.80 Z" fill="#fab9d7" fill-rule="nonzero" node-id="114" stroke="none" target-height="97.2" target-width="62.299988" target-x="641.4" target-y="135.5"></path><path d="M 326.30 179.00 L 321.20 159.10 L 320.10 152.40 L 319.70 147.90 L 319.70 143.40 L 320.20 138.80 L 346.40 153.80 L 357.90 161.30 L 364.10 165.90 L 388.00 185.60 L 380.90 192.10 L 374.10 198.90 L 367.60 206.10 L 358.30 217.10 L 349.30 228.40 L 344.50 220.70 L 335.80 204.60 L 332.10 196.30 L 328.90 187.70 L 326.30 179.00 Z" fill="#f9bccf" fill-rule="nonzero" node-id="116" stroke="none" target-height="89.59999" target-width="68.29999" target-x="319.7" target-y="138.8"></path><path d="M 477.90 147.60 L 493.10 145.50 L 508.50 144.30 L 506.50 155.10 L 501.50 176.40 L 497.00 192.20 L 482.10 239.20 L 483.20 223.90 L 482.70 204.80 L 478.50 159.00 L 477.90 147.60 Z" fill="#da8c3f" fill-rule="nonzero" node-id="118" stroke="none" target-height="94.899994" target-width="30.600006" target-x="477.9" target-y="144.3"></path><path d="M 536.40 145.20 L 544.00 146.20 L 551.50 147.60 L 559.00 149.40 L 566.40 151.60 L 561.10 203.00 L 560.10 215.90 L 559.50 231.10 L 560.00 233.10 L 560.90 235.00 L 562.20 236.70 L 565.50 239.60 L 558.40 238.60 L 552.50 223.60 L 547.20 208.40 L 544.00 198.10 L 541.30 187.70 L 539.10 177.20 L 537.80 169.30 L 536.90 161.30 L 536.40 153.30 L 536.40 145.20 Z" fill="#de8d42" fill-rule="nonzero" node-id="120" stroke="none" target-height="94.40001" target-width="30" target-x="536.4" target-y="145.2"></path><path d="M 445.00 157.10 L 455.80 153.40 L 466.80 150.30 L 477.90 147.60 L 478.50 159.00 L 482.70 204.80 L 483.20 223.90 L 482.10 239.20 L 476.20 237.50 L 474.40 236.70 L 472.90 235.60 L 468.40 227.80 L 465.50 221.70 L 459.60 205.90 L 448.20 166.70 L 445.00 157.10 Z" fill="#8c4649" fill-rule="nonzero" node-id="122" stroke="none" target-height="91.59999" target-width="38.200012" target-x="445" target-y="147.6"></path><path d="M 566.40 151.60 L 586.30 160.30 L 579.30 195.40 L 571.50 229.80 L 565.50 239.60 L 562.20 236.70 L 560.90 235.00 L 560.00 233.10 L 559.50 231.10 L 560.10 215.90 L 561.10 203.00 L 566.40 151.60 Z" fill="#934c46" fill-rule="nonzero" node-id="124" stroke="none" target-height="88" target-width="26.799988" target-x="559.5" target-y="151.6"></path><path d="M 416.60 169.50 L 445.00 157.10 L 448.20 166.70 L 459.60 205.90 L 465.50 221.70 L 468.40 227.80 L 472.90 235.60 L 474.40 236.70 L 476.20 237.50 L 482.10 239.20 L 480.30 241.80 L 476.30 240.50 L 472.70 238.90 L 469.30 236.70 L 463.30 231.40 L 456.90 223.40 L 445.00 205.70 L 435.80 193.40 L 416.60 169.50 Z" fill="#e2994a" fill-rule="nonzero" node-id="126" stroke="none" target-height="84.7" target-width="65.5" target-x="416.6" target-y="157.1"></path><path d="M 571.50 229.80 L 579.30 195.40 L 586.20 160.80 L 605.80 171.60 L 599.50 181.00 L 593.70 190.60 L 571.50 229.80 Z" fill="#e6a44c" fill-rule="nonzero" node-id="128" stroke="none" target-height="69" target-width="34.299988" target-x="571.5" target-y="160.8"></path><path d="M 595.70 259.20 L 597.40 255.60 L 599.60 252.30 L 602.20 249.20 L 605.20 246.60 L 609.80 244.10 L 615.10 242.60 L 617.90 242.30 L 623.50 242.80 L 628.70 244.80 L 631.00 246.30 L 634.90 250.20 L 636.40 252.50 L 637.40 255.10 L 638.10 257.90 L 631.90 254.40 L 625.40 252.00 L 621.90 251.40 L 615.50 251.30 L 610.30 252.40 L 606.60 253.80 L 595.70 259.20 Z" fill="#35171e" fill-rule="nonzero" node-id="130" stroke="none" target-height="16.90001" target-width="42.399963" target-x="595.7" target-y="242.3"></path><path d="M 390.60 256.50 L 393.70 251.50 L 397.70 248.00 L 400.80 246.30 L 404.10 245.10 L 407.60 244.40 L 411.10 244.30 L 414.70 244.60 L 418.20 245.40 L 421.60 246.70 L 424.70 248.40 L 427.60 250.60 L 430.10 253.20 L 432.20 256.20 L 433.80 259.70 L 418.20 253.30 L 412.70 252.10 L 406.60 252.00 L 403.30 252.60 L 390.60 256.50 Z" fill="#2b1216" fill-rule="nonzero" node-id="132" stroke="none" target-height="15.400009" target-width="43.19998" target-x="390.6" target-y="244.3"></path><path d="M 319.00 317.30 L 322.90 299.10 L 325.20 290.10 L 327.90 281.10 L 331.00 272.40 L 334.40 263.70 L 334.50 278.20 L 334.00 292.70 L 331.90 321.60 L 319.00 317.30 Z" fill="#cabccb" fill-rule="nonzero" node-id="134" stroke="none" target-height="57.899994" target-width="15.5" target-x="319" target-y="263.7"></path><path d="M 552.20 883.30 L 555.00 883.80 L 555.70 884.40 L 556.50 885.70 L 557.00 889.20 L 557.00 896.60 L 556.20 899.60 L 554.80 901.40 L 552.80 903.00 L 552.10 893.10 L 552.20 883.30 Z" fill="#543644" fill-rule="nonzero" node-id="136" stroke="none" target-height="19.700012" target-width="4.9000244" target-x="552.1" target-y="883.3"></path><path d="M 403.00 299.30 L 406.70 297.90 L 410.60 296.90 L 414.70 296.40 L 418.70 296.50 L 422.70 297.10 L 426.60 298.20 L 429.40 299.40 L 434.30 302.70 L 436.60 304.80 L 439.10 307.90 L 441.10 311.30 L 442.60 314.90 L 443.70 318.70 L 444.30 322.60 L 444.50 326.60 L 444.10 330.50 L 443.30 334.30 L 442.00 338.10 L 440.20 341.60 L 438.00 344.70 L 435.20 347.70 L 431.80 349.90 L 428.20 351.70 L 424.30 352.90 L 420.20 353.70 L 416.20 353.90 L 412.10 353.60 L 408.10 352.80 L 404.30 351.50 L 400.60 349.70 L 397.30 347.40 L 394.40 344.60 L 391.80 341.30 L 389.90 337.70 L 388.60 334.00 L 387.80 330.00 L 387.50 325.90 L 387.70 321.90 L 388.50 317.90 L 389.70 314.00 L 391.50 310.40 L 393.70 307.00 L 397.80 302.70 L 403.00 299.30 Z" fill="#391b2b" fill-rule="nonzero" node-id="138" stroke="none" target-height="57.5" target-width="57" target-x="387.5" target-y="296.4"></path><path d="M 595.20 302.70 L 598.00 300.70 L 601.00 299.20 L 604.10 298.10 L 607.40 297.30 L 611.80 296.90 L 616.20 297.10 L 620.60 297.90 L 624.90 299.20 L 628.90 301.20 L 632.60 303.70 L 635.10 305.90 L 637.40 308.30 L 639.30 311.10 L 640.90 314.10 L 641.90 317.80 L 642.60 321.50 L 642.80 325.30 L 642.60 329.10 L 642.00 332.80 L 641.00 336.40 L 639.60 339.90 L 637.80 343.20 L 635.50 346.30 L 628.60 350.70 L 621.50 354.60 L 617.00 355.10 L 612.40 354.90 L 606.50 353.80 L 601.00 351.40 L 596.10 347.80 L 593.10 344.90 L 590.60 341.50 L 588.50 337.70 L 586.90 333.70 L 585.90 329.50 L 585.40 325.20 L 585.50 320.90 L 586.20 316.70 L 587.50 312.70 L 588.80 309.90 L 590.60 307.30 L 592.60 304.90 L 595.20 302.70 Z" fill="#3c1e2b" fill-rule="nonzero" node-id="140" stroke="none" target-height="58.200012" target-width="57.399963" target-x="585.4" target-y="296.9"></path><path d="M 254.70 322.70 L 258.30 320.80 L 260.20 320.40 L 263.00 320.40 L 265.80 321.00 L 268.60 322.00 L 276.50 326.20 L 272.30 332.10 L 271.30 334.30 L 270.30 338.00 L 269.70 345.70 L 270.10 357.40 L 265.00 370.00 L 265.20 371.60 L 266.40 374.20 L 271.00 379.50 L 272.10 381.50 L 271.80 383.60 L 266.90 391.00 L 266.00 393.10 L 265.60 395.30 L 267.30 401.70 L 269.90 407.80 L 258.30 412.30 L 256.20 409.90 L 254.50 407.40 L 253.20 404.80 L 251.90 400.50 L 249.50 387.00 L 240.60 382.40 L 235.10 378.60 L 233.00 376.20 L 231.90 374.40 L 230.70 369.80 L 230.70 366.90 L 231.20 364.20 L 232.10 361.80 L 235.00 357.50 L 240.30 353.10 L 243.90 351.00 L 251.20 347.50 L 249.40 340.90 L 248.80 337.50 L 248.80 331.80 L 250.10 327.70 L 251.10 325.80 L 252.70 324.20 L 254.70 322.70 Z" fill="#ecc3d5" fill-rule="nonzero" node-id="142" stroke="none" target-height="91.899994" target-width="45.800003" target-x="230.7" target-y="320.4"></path><path d="M 282.30 331.40 L 292.00 323.80 L 294.50 322.30 L 297.20 321.20 L 299.10 320.90 L 303.30 321.30 L 301.70 329.20 L 300.60 337.20 L 299.30 353.30 L 293.10 358.10 L 299.60 361.10 L 300.80 377.60 L 292.70 377.40 L 291.40 364.00 L 290.60 360.70 L 289.30 357.60 L 285.20 355.40 L 283.10 354.90 L 279.80 354.60 L 276.50 355.00 L 273.20 356.00 L 270.10 357.40 L 269.90 341.80 L 270.30 338.00 L 271.30 334.30 L 272.30 332.10 L 275.50 327.70 L 282.30 331.40 Z" fill="#f2d9e5" fill-rule="nonzero" node-id="144" stroke="none" target-height="56.700012" target-width="33.399994" target-x="269.9" target-y="320.9"></path><path d="M 319.60 331.80 L 328.40 332.80 L 328.90 342.80 L 328.90 353.00 L 319.80 352.00 L 319.50 341.80 L 319.60 331.80 Z" fill="#bba7c1" fill-rule="nonzero" node-id="146" stroke="none" target-height="21.200012" target-width="9.399994" target-x="319.5" target-y="331.8"></path><path d="M 496.00 347.70 L 507.90 346.50 L 520.00 346.20 L 524.00 346.50 L 531.80 348.00 L 531.70 352.20 L 531.10 353.90 L 529.60 356.40 L 527.70 358.60 L 521.00 365.00 L 519.10 367.20 L 519.30 369.50 L 519.80 371.60 L 520.80 373.50 L 523.80 376.90 L 525.70 378.20 L 528.70 379.80 L 535.10 381.40 L 541.40 381.60 L 546.00 380.90 L 550.70 379.80 L 559.60 376.60 L 559.00 379.60 L 556.90 385.40 L 554.70 389.50 L 552.10 393.40 L 546.20 400.50 L 543.00 403.00 L 539.80 405.20 L 536.30 407.00 L 532.60 408.40 L 527.60 409.70 L 522.40 410.50 L 517.10 410.90 L 511.70 410.70 L 501.40 409.30 L 494.20 406.70 L 487.90 402.80 L 484.20 399.60 L 480.80 395.90 L 477.70 391.90 L 475.00 387.60 L 470.70 378.60 L 475.10 380.40 L 479.90 381.80 L 484.80 382.60 L 489.80 382.80 L 493.10 382.60 L 499.30 381.10 L 502.20 379.80 L 504.80 378.10 L 507.20 376.10 L 509.10 373.70 L 510.80 370.90 L 512.10 367.50 L 504.10 361.30 L 499.30 356.80 L 497.50 354.10 L 496.70 352.20 L 496.00 347.70 Z M 501.90 352.80 L 506.00 354.00 L 510.10 354.80 L 514.30 355.20 L 518.50 355.00 L 522.70 354.30 L 526.70 353.10 L 514.30 352.70 L 501.90 352.80 Z M 482.10 388.50 L 487.50 394.70 L 490.50 397.40 L 493.70 399.90 L 497.20 402.00 L 500.80 403.80 L 504.60 405.00 L 508.60 405.60 L 516.60 406.00 L 520.10 406.00 L 527.00 404.80 L 531.40 403.30 L 535.50 401.20 L 539.40 398.70 L 543.00 395.60 L 546.20 392.20 L 549.10 388.40 L 540.70 388.70 L 536.50 388.50 L 532.30 387.80 L 528.40 386.80 L 524.60 385.30 L 521.90 383.80 L 517.10 379.90 L 514.90 377.30 L 511.90 380.10 L 505.30 384.50 L 501.70 386.30 L 498.00 387.60 L 494.10 388.50 L 490.20 389.00 L 486.20 389.00 L 482.10 388.50 Z" fill="#340d20" fill-rule="nonzero" node-id="148" stroke="none" target-height="64.69998" target-width="88.89996" target-x="470.7" target-y="346.2"></path><path d="M 621.50 354.60 L 628.60 350.70 L 635.50 346.30 L 642.60 347.60 L 657.00 348.20 L 660.20 349.60 L 666.00 353.60 L 676.60 363.70 L 673.30 382.80 L 687.30 383.80 L 675.70 387.90 L 674.40 393.90 L 666.90 397.50 L 644.50 395.50 L 638.90 394.70 L 633.50 393.50 L 626.60 391.10 L 623.40 389.40 L 620.40 387.40 L 617.60 384.90 L 614.90 381.90 L 613.50 379.40 L 612.80 377.10 L 612.50 374.80 L 612.70 372.40 L 614.00 367.70 L 615.60 364.30 L 621.50 354.60 Z M 642.00 362.10 L 643.90 364.00 L 645.90 365.40 L 648.10 366.30 L 651.70 367.10 L 655.50 367.30 L 663.00 366.90 L 661.90 364.80 L 659.20 361.80 L 657.60 360.80 L 655.20 359.90 L 652.70 359.50 L 649.90 359.60 L 644.60 360.90 L 642.00 362.10 Z M 632.20 370.40 L 631.90 372.50 L 632.10 374.00 L 632.80 375.00 L 633.80 375.70 L 636.90 376.50 L 642.30 376.30 L 646.90 375.60 L 642.50 372.40 L 640.10 371.20 L 637.50 370.40 L 634.90 370.10 L 632.20 370.40 Z" fill="#f8cad4" fill-rule="nonzero" node-id="150" stroke="none" target-height="51.200012" target-width="74.79999" target-x="612.5" target-y="346.3"></path><path d="M 359.80 360.70 L 371.30 355.50 L 379.30 352.70 L 386.10 351.70 L 391.70 352.30 L 400.30 355.30 L 404.40 357.20 L 408.30 359.60 L 411.90 362.40 L 415.00 365.60 L 416.30 367.60 L 417.20 369.60 L 417.90 374.20 L 417.10 378.70 L 414.90 382.70 L 410.70 386.80 L 407.90 388.70 L 404.90 390.30 L 400.30 392.10 L 395.30 393.40 L 385.10 394.70 L 374.90 395.50 L 359.80 386.30 L 359.50 371.80 L 359.80 360.70 Z M 373.80 372.30 L 382.40 374.40 L 386.80 375.00 L 391.20 375.20 L 395.60 374.80 L 399.90 374.00 L 400.70 372.40 L 400.90 371.20 L 400.60 370.20 L 399.80 369.30 L 395.70 367.30 L 389.90 366.00 L 386.80 366.00 L 383.80 366.40 L 381.00 367.20 L 378.30 368.40 L 375.90 370.10 L 373.80 372.30 Z" fill="#f6c5d9" fill-rule="nonzero" node-id="152" stroke="none" target-height="43.799988" target-width="58.399994" target-x="359.5" target-y="351.7"></path><path d="M 275.80 360.50 L 277.70 359.90 L 279.20 359.80 L 280.50 360.30 L 282.60 362.10 L 283.30 363.50 L 283.90 365.80 L 284.00 368.30 L 283.10 371.30 L 281.50 374.00 L 280.70 374.70 L 279.80 375.10 L 278.40 375.10 L 275.00 373.40 L 271.00 369.70 L 275.80 360.50 Z" fill="#5d3f4a" fill-rule="nonzero" node-id="154" stroke="none" target-height="15.300018" target-width="13" target-x="271" target-y="359.8"></path><path d="M 642.00 362.10 L 647.20 360.10 L 649.90 359.60 L 652.70 359.50 L 655.20 359.90 L 657.60 360.80 L 660.70 363.10 L 663.00 366.90 L 655.50 367.30 L 651.70 367.10 L 648.10 366.30 L 645.90 365.40 L 643.90 364.00 L 642.00 362.10 Z" fill="#f7efef" fill-rule="nonzero" node-id="156" stroke="none" target-height="7.799988" target-width="21" target-x="642" target-y="359.5"></path><path d="M 676.60 363.70 L 690.80 362.60 L 719.00 358.90 L 716.60 377.50 L 685.00 377.00 L 674.40 377.10 L 676.60 363.70 Z" fill="#dddae3" fill-rule="nonzero" node-id="158" stroke="none" target-height="18.600006" target-width="44.599976" target-x="674.4" target-y="358.9"></path><path d="M 317.40 360.80 L 359.60 364.20 L 359.60 379.40 L 329.40 379.60 L 319.30 379.40 L 317.40 360.80 Z M 320.00 363.50 L 319.90 367.60 L 320.20 371.80 L 320.90 375.90 L 330.90 377.30 L 330.80 363.30 L 320.00 363.50 Z" fill="#e7dee7" fill-rule="nonzero" node-id="160" stroke="none" target-height="18.800018" target-width="42.200012" target-x="317.4" target-y="360.8"></path><path d="M 320.00 363.50 L 330.80 363.30 L 330.90 377.30 L 320.90 375.90 L 320.20 371.80 L 319.90 367.60 L 320.00 363.50 Z" fill="#b3a4be" fill-rule="nonzero" node-id="162" stroke="none" target-height="14" target-width="11" target-x="319.9" target-y="363.3"></path><path d="M 373.80 372.30 L 375.90 370.10 L 378.30 368.40 L 381.00 367.20 L 383.80 366.40 L 386.80 366.00 L 389.90 366.00 L 395.70 367.30 L 399.80 369.30 L 400.60 370.20 L 400.90 371.20 L 400.70 372.40 L 399.90 374.00 L 395.60 374.80 L 391.20 375.20 L 386.80 375.00 L 382.40 374.40 L 373.80 372.30 Z" fill="#f3e6e9" fill-rule="nonzero" node-id="164" stroke="none" target-height="9.200012" target-width="27.100006" target-x="373.8" target-y="366"></path><path d="M 632.20 370.40 L 634.90 370.10 L 637.50 370.40 L 640.10 371.20 L 642.50 372.40 L 646.90 375.60 L 639.50 376.50 L 635.20 376.30 L 632.80 375.00 L 632.10 374.00 L 631.90 372.50 L 632.20 370.40 Z" fill="#f4e9e9" fill-rule="nonzero" node-id="166" stroke="none" target-height="6.399994" target-width="15" target-x="631.9" target-y="370.1"></path><path d="M 274.00 382.70 L 277.00 382.40 L 282.90 380.90 L 291.20 377.00 L 301.30 380.80 L 304.60 395.60 L 290.40 395.30 L 289.10 400.20 L 286.40 404.10 L 284.10 406.40 L 281.40 408.20 L 278.20 409.80 L 271.60 411.90 L 268.10 412.50 L 264.60 412.70 L 258.30 412.30 L 269.90 407.80 L 267.30 401.70 L 265.60 395.30 L 266.00 393.10 L 268.00 389.10 L 271.80 383.60 L 274.00 382.70 Z" fill="#f2d4e0" fill-rule="nonzero" node-id="168" stroke="none" target-height="35.700012" target-width="46.30002" target-x="258.3" target-y="377"></path><path d="M 482.10 388.50 L 486.20 389.00 L 490.20 389.00 L 494.10 388.50 L 498.00 387.60 L 501.70 386.30 L 505.30 384.50 L 511.90 380.10 L 514.90 377.30 L 517.10 379.90 L 521.90 383.80 L 524.60 385.30 L 528.40 386.80 L 532.30 387.80 L 536.50 388.50 L 540.70 388.70 L 549.10 388.40 L 546.20 392.20 L 543.00 395.60 L 539.40 398.70 L 535.50 401.20 L 531.40 403.30 L 527.00 404.80 L 520.10 406.00 L 516.60 406.00 L 508.60 405.60 L 504.60 405.00 L 500.80 403.80 L 497.20 402.00 L 493.70 399.90 L 490.50 397.40 L 487.50 394.70 L 482.10 388.50 Z" fill="#fcfefd" fill-rule="nonzero" node-id="170" stroke="none" target-height="28.700012" target-width="66.99997" target-x="482.1" target-y="377.3"></path><path d="M 675.70 387.90 L 686.50 384.10 L 693.60 383.90 L 714.90 385.20 L 707.20 404.50 L 680.50 398.70 L 673.70 397.80 L 666.90 397.50 L 674.40 393.90 L 675.70 387.90 Z" fill="#d3cdda" fill-rule="nonzero" node-id="172" stroke="none" target-height="20.600006" target-width="48" target-x="666.9" target-y="383.9"></path><path d="M 321.30 387.60 L 347.00 385.90 L 353.40 385.80 L 359.80 386.30 L 374.90 395.50 L 363.90 399.40 L 355.00 401.80 L 345.90 403.70 L 336.70 405.00 L 327.50 405.70 L 321.30 387.60 Z" fill="#dbd4de" fill-rule="nonzero" node-id="174" stroke="none" target-height="19.900024" target-width="53.600006" target-x="321.3" target-y="385.8"></path><path d="M 332.50 413.50 L 364.80 404.20 L 367.00 408.90 L 369.70 413.20 L 372.90 417.20 L 376.50 420.90 L 380.40 424.20 L 384.60 427.30 L 391.20 431.40 L 398.00 434.90 L 405.80 438.20 L 413.60 441.00 L 429.70 445.70 L 440.60 448.10 L 451.60 449.90 L 462.70 451.20 L 473.90 452.00 L 485.00 452.50 L 496.20 452.50 L 543.50 454.30 L 559.20 454.50 L 569.80 454.20 L 580.20 453.60 L 598.40 451.30 L 613.80 448.00 L 626.90 443.90 L 632.30 441.70 L 642.40 436.30 L 648.80 431.90 L 654.80 427.10 L 660.50 421.90 L 665.80 416.30 L 670.70 410.30 L 675.30 404.10 L 703.70 411.00 L 699.90 416.80 L 691.40 427.50 L 686.80 432.60 L 680.10 438.80 L 673.10 444.60 L 665.60 450.00 L 657.90 454.80 L 649.80 459.00 L 641.40 462.80 L 630.00 466.90 L 618.50 470.50 L 606.80 473.50 L 595.00 476.00 L 583.10 478.00 L 571.10 479.60 L 546.90 481.50 L 534.90 482.00 L 518.30 482.10 L 501.60 481.90 L 485.00 481.20 L 468.40 479.90 L 457.40 478.60 L 446.50 476.90 L 425.70 472.60 L 415.80 470.00 L 405.90 466.80 L 396.20 463.20 L 386.70 459.10 L 377.50 454.50 L 370.80 450.60 L 364.40 446.40 L 358.30 441.80 L 352.40 436.90 L 346.90 431.70 L 341.70 426.00 L 336.90 420.00 L 332.50 413.50 Z" fill="#d3cddd" fill-rule="nonzero" node-id="176" stroke="none" target-height="78" target-width="371.2" target-x="332.5" target-y="404.1"></path><path d="M 275.20 422.40 L 285.00 419.70 L 300.70 472.70 L 306.20 490.30 L 318.30 525.10 L 305.60 524.90 L 293.90 491.20 L 288.50 474.20 L 280.30 445.60 L 275.20 422.40 Z" fill="#d0cddf" fill-rule="nonzero" node-id="178" stroke="none" target-height="105.39996" target-width="43.099976" target-x="275.2" target-y="419.7"></path><path d="M 725.20 523.10 L 727.40 515.20 L 730.90 507.60 L 733.20 504.20 L 735.80 501.00 L 738.80 498.20 L 742.20 495.90 L 745.90 494.10 L 748.30 493.40 L 750.40 493.30 L 752.50 493.70 L 756.30 495.50 L 758.00 496.90 L 760.50 500.40 L 762.00 504.60 L 762.30 506.70 L 761.80 519.30 L 762.10 529.60 L 763.60 543.20 L 765.00 550.00 L 766.70 556.60 L 769.00 563.10 L 771.80 569.50 L 755.90 568.30 L 747.10 568.70 L 740.50 570.20 L 737.30 571.50 L 734.30 573.30 L 731.40 575.70 L 728.80 567.20 L 726.60 558.50 L 724.70 546.70 L 724.10 534.90 L 724.50 529.00 L 725.20 523.10 Z" fill="#fefefd" fill-rule="nonzero" node-id="180" stroke="none" target-height="82.400024" target-width="47.700012" target-x="724.1" target-y="493.3"></path><path d="M 306.50 524.90 L 318.30 525.10 L 328.50 531.10 L 328.40 536.90 L 327.90 542.70 L 326.80 548.40 L 323.40 559.50 L 321.20 564.90 L 306.50 524.90 Z" fill="#99523e" fill-rule="nonzero" node-id="182" stroke="none" target-height="40" target-width="22" target-x="306.5" target-y="524.9"></path><path d="M 328.50 531.10 L 337.30 535.80 L 345.90 540.90 L 356.80 548.50 L 361.90 552.70 L 366.70 557.20 L 371.20 562.10 L 375.40 567.40 L 360.40 569.00 L 345.60 571.60 L 324.20 574.50 L 321.20 564.90 L 323.40 559.50 L 326.80 548.40 L 327.90 542.70 L 328.40 536.90 L 328.50 531.10 Z" fill="#e49847" fill-rule="nonzero" node-id="184" stroke="none" target-height="43.400024" target-width="54.19998" target-x="321.2" target-y="531.1"></path><path d="M 547.70 578.30 L 549.30 573.00 L 551.40 567.90 L 553.90 563.10 L 556.80 558.50 L 560.10 554.10 L 563.70 550.00 L 567.60 546.20 L 571.80 542.60 L 577.80 538.30 L 584.00 534.50 L 590.60 531.30 L 579.60 542.60 L 574.40 548.80 L 569.50 555.30 L 566.60 559.80 L 561.80 569.20 L 560.00 574.10 L 558.70 579.10 L 558.00 584.20 L 557.80 588.00 L 558.60 596.00 L 559.60 600.10 L 562.00 603.90 L 564.60 607.50 L 570.90 613.90 L 583.00 600.90 L 577.60 613.70 L 581.80 613.40 L 589.90 611.70 L 595.70 609.60 L 601.30 607.00 L 606.80 603.90 L 621.00 594.60 L 648.00 576.50 L 636.80 590.90 L 630.80 597.80 L 624.40 604.30 L 615.10 612.10 L 610.20 615.60 L 605.00 618.60 L 599.60 621.20 L 593.80 623.40 L 584.20 624.90 L 579.30 625.20 L 571.10 624.70 L 564.90 623.10 L 562.00 621.80 L 559.30 620.10 L 556.60 618.00 L 552.40 612.40 L 549.40 606.10 L 548.00 601.60 L 547.20 597.10 L 546.70 592.30 L 546.70 587.60 L 547.70 578.30 Z" fill="#31131c" fill-rule="nonzero" node-id="186" stroke="none" target-height="93.900024" target-width="101.29999" target-x="546.7" target-y="531.3"></path><path d="M 682.30 543.80 L 682.70 543.40 L 684.30 550.90 L 686.40 558.40 L 688.90 565.80 L 681.30 570.40 L 673.50 574.50 L 667.20 576.20 L 660.70 576.90 L 665.50 568.20 L 670.80 559.90 L 682.30 543.80 Z" fill="#e38c42" fill-rule="nonzero" node-id="188" stroke="none" target-height="33.5" target-width="28.200012" target-x="660.7" target-y="543.4"></path><path d="M 688.90 565.80 L 696.40 603.40 L 680.90 594.60 L 677.30 592.00 L 674.00 589.00 L 672.80 587.60 L 672.10 586.10 L 672.00 582.10 L 673.50 574.50 L 681.30 570.40 L 688.90 565.80 Z" fill="#8c564a" fill-rule="nonzero" node-id="190" stroke="none" target-height="37.600037" target-width="24.400024" target-x="672" target-y="565.8"></path><path d="M 345.60 571.60 L 360.40 569.00 L 375.40 567.40 L 374.60 571.50 L 371.90 579.10 L 370.00 582.60 L 367.00 587.00 L 363.60 591.10 L 359.70 594.90 L 355.50 598.30 L 351.10 601.40 L 346.40 604.10 L 345.60 571.60 Z" fill="#a2574b" fill-rule="nonzero" node-id="192" stroke="none" target-height="36.69995" target-width="29.799988" target-x="345.6" target-y="567.4"></path><path d="M 375.40 567.40 L 379.20 573.30 L 382.70 579.50 L 385.80 586.00 L 388.50 592.70 L 390.70 599.50 L 392.40 606.50 L 393.50 613.50 L 394.00 620.60 L 393.90 627.70 L 393.50 633.00 L 392.50 638.20 L 391.20 643.40 L 389.50 648.60 L 387.80 643.00 L 379.70 649.80 L 380.90 641.40 L 377.50 638.80 L 370.20 634.30 L 364.50 631.50 L 358.50 629.00 L 346.40 624.80 L 346.40 604.10 L 351.10 601.40 L 355.50 598.30 L 359.70 594.90 L 363.60 591.10 L 367.00 587.00 L 370.00 582.60 L 371.90 579.10 L 374.60 571.50 L 375.40 567.40 Z" fill="#f5b052" fill-rule="nonzero" node-id="194" stroke="none" target-height="82.39996" target-width="47.600006" target-x="346.4" target-y="567.4"></path><path d="M 731.40 575.70 L 734.30 573.30 L 737.30 571.50 L 740.50 570.20 L 747.10 568.70 L 755.90 568.30 L 771.80 569.50 L 774.80 576.70 L 777.50 584.10 L 781.90 599.10 L 778.80 599.20 L 776.20 599.70 L 773.90 600.70 L 769.70 603.80 L 768.00 605.80 L 763.60 612.70 L 760.00 620.00 L 753.80 634.30 L 751.30 638.80 L 748.60 643.20 L 745.50 647.40 L 744.30 635.30 L 742.60 623.20 L 740.30 611.20 L 737.60 599.30 L 731.40 575.70 Z" fill="#f3a751" fill-rule="nonzero" node-id="196" stroke="none" target-height="79.10004" target-width="50.5" target-x="731.4" target-y="568.3"></path><path d="M 324.20 574.50 L 345.60 571.60 L 346.40 604.10 L 335.50 604.30 L 334.20 622.10 L 346.40 624.80 L 349.60 643.20 L 351.70 648.80 L 353.10 651.40 L 355.00 653.60 L 357.30 655.60 L 360.30 657.30 L 352.70 656.90 L 340.00 655.20 L 335.10 654.00 L 327.70 651.60 L 330.00 642.00 L 331.90 632.30 L 332.70 625.70 L 333.40 612.50 L 333.20 605.90 L 332.40 599.40 L 331.20 593.00 L 329.50 586.70 L 327.20 580.50 L 324.20 574.50 Z" fill="#884943" fill-rule="nonzero" node-id="198" stroke="none" target-height="85.70001" target-width="36.099976" target-x="324.2" target-y="571.6"></path><path d="M 660.70 576.90 L 667.20 576.20 L 673.50 574.50 L 672.00 582.10 L 671.90 584.50 L 672.10 586.10 L 672.80 587.60 L 677.30 592.00 L 680.90 594.60 L 696.40 603.40 L 699.10 619.70 L 687.20 625.90 L 681.40 629.40 L 665.40 640.60 L 655.40 648.50 L 653.70 642.60 L 651.60 630.60 L 651.20 624.50 L 651.40 612.20 L 652.10 606.20 L 654.50 594.10 L 656.20 588.30 L 660.70 576.90 Z" fill="#e9994c" fill-rule="nonzero" node-id="200" stroke="none" target-height="74" target-width="47.899963" target-x="651.2" target-y="574.5"></path><path d="M 585.20 600.60 L 589.90 600.70 L 594.50 600.20 L 599.10 599.30 L 612.80 595.90 L 612.00 600.50 L 601.30 607.00 L 595.70 609.60 L 589.90 611.70 L 585.90 612.70 L 577.60 613.70 L 583.00 600.90 L 570.90 613.90 L 564.60 607.50 L 562.00 603.90 L 559.60 600.10 L 566.00 599.60 L 572.40 599.60 L 585.20 600.60 Z" fill="#dcdbe3" fill-rule="nonzero" node-id="202" stroke="none" target-height="18" target-width="53.200012" target-x="559.6" target-y="595.9"></path><path d="M 760.00 620.00 L 765.60 609.10 L 769.70 603.80 L 773.90 600.70 L 776.20 599.70 L 778.80 599.20 L 781.90 599.10 L 790.30 652.80 L 784.00 654.70 L 778.60 655.90 L 771.50 656.70 L 767.80 656.60 L 762.70 655.40 L 757.70 653.80 L 748.30 649.40 L 745.50 647.40 L 748.60 643.20 L 751.30 638.80 L 756.00 629.60 L 760.00 620.00 Z" fill="#ad614a" fill-rule="nonzero" node-id="204" stroke="none" target-height="57.600037" target-width="44.799988" target-x="745.5" target-y="599.1"></path><path d="M 335.50 604.30 L 346.40 604.10 L 346.40 624.80 L 334.20 622.10 L 335.50 604.30 Z" fill="#e0944b" fill-rule="nonzero" node-id="206" stroke="none" target-height="20.700012" target-width="12.199982" target-x="334.2" target-y="604.1"></path><path d="M 675.80 633.10 L 687.20 625.90 L 699.10 619.70 L 704.30 647.40 L 688.00 651.20 L 679.50 650.40 L 675.80 633.10 Z" fill="#764250" fill-rule="nonzero" node-id="208" stroke="none" target-height="31.5" target-width="28.5" target-x="675.8" target-y="619.7"></path><path d="M 346.40 624.80 L 358.50 629.00 L 364.50 631.50 L 373.90 636.40 L 380.90 641.40 L 379.70 649.80 L 376.80 651.80 L 370.50 654.80 L 365.50 656.30 L 360.30 657.30 L 357.30 655.60 L 355.00 653.60 L 353.10 651.40 L 351.70 648.80 L 349.60 643.20 L 346.40 624.80 Z" fill="#a45a49" fill-rule="nonzero" node-id="210" stroke="none" target-height="32.5" target-width="34.5" target-x="346.4" target-y="624.8"></path><path d="M 655.40 648.50 L 665.40 640.60 L 675.80 633.10 L 679.50 650.40 L 688.00 651.20 L 680.40 652.50 L 672.80 653.30 L 665.10 653.60 L 657.40 653.40 L 655.40 648.50 Z" fill="#ab5d47" fill-rule="nonzero" node-id="212" stroke="none" target-height="20.5" target-width="32.599976" target-x="655.4" target-y="633.1"></path><path d="M 379.70 649.80 L 387.80 643.00 L 389.50 648.60 L 387.00 654.70 L 384.20 660.60 L 380.90 666.20 L 377.10 671.70 L 368.70 681.70 L 359.10 690.80 L 352.20 696.30 L 345.00 701.20 L 337.50 705.70 L 335.40 706.60 L 333.80 697.60 L 332.70 688.60 L 330.20 652.50 L 335.10 654.00 L 345.10 656.00 L 352.70 656.90 L 360.30 657.30 L 365.50 656.30 L 370.50 654.80 L 376.80 651.80 L 379.70 649.80 Z" fill="#f3a84b" fill-rule="nonzero" node-id="214" stroke="none" target-height="63.599976" target-width="59.299988" target-x="330.2" target-y="643"></path><path d="M 688.00 651.20 L 704.30 647.40 L 707.10 665.00 L 709.40 682.60 L 711.50 706.20 L 712.10 718.00 L 702.20 711.80 L 695.20 705.70 L 688.50 699.20 L 682.20 692.40 L 676.30 685.20 L 670.80 677.70 L 665.80 669.90 L 661.30 661.80 L 657.40 653.40 L 665.10 653.60 L 672.80 653.30 L 680.40 652.50 L 688.00 651.20 Z" fill="#e99f4b" fill-rule="nonzero" node-id="216" stroke="none" target-height="70.599976" target-width="54.69995" target-x="657.4" target-y="647.4"></path><path d="M 327.70 651.60 L 330.20 652.50 L 332.70 688.60 L 333.80 697.60 L 335.40 706.60 L 323.30 710.40 L 323.70 695.60 L 324.50 680.90 L 325.90 666.30 L 327.70 651.60 Z" fill="#cd793f" fill-rule="nonzero" node-id="218" stroke="none" target-height="58.80005" target-width="12.100006" target-x="323.3" target-y="651.6"></path><path d="M 767.80 656.60 L 771.50 656.70 L 778.60 655.90 L 789.20 653.10 L 788.20 661.60 L 786.70 670.10 L 784.80 678.50 L 782.30 686.80 L 779.40 694.90 L 775.90 702.80 L 772.90 708.50 L 769.50 714.00 L 765.80 719.30 L 761.80 724.40 L 754.10 732.20 L 750.00 735.80 L 743.40 740.70 L 736.50 745.20 L 722.10 753.20 L 727.70 722.30 L 729.40 728.00 L 739.20 722.50 L 748.10 715.80 L 753.50 710.70 L 758.50 705.20 L 763.10 699.40 L 767.20 693.20 L 770.80 686.70 L 774.00 680.00 L 776.60 673.00 L 778.70 665.90 L 780.20 658.60 L 767.80 656.60 Z" fill="#cdcbdb" fill-rule="nonzero" node-id="220" stroke="none" target-height="100.10004" target-width="67.10004" target-x="722.1" target-y="653.1"></path><path d="M 323.30 710.40 L 337.50 705.70 L 340.00 713.70 L 343.00 721.40 L 346.50 729.10 L 350.70 736.40 L 355.30 743.50 L 360.40 750.20 L 368.90 759.40 L 378.40 767.60 L 383.50 771.20 L 388.80 774.50 L 394.30 777.40 L 400.00 779.90 L 405.80 782.00 L 411.80 783.70 L 418.00 784.90 L 424.50 785.70 L 425.60 791.00 L 416.60 795.90 L 416.20 820.20 L 409.00 818.50 L 406.70 817.70 L 405.40 816.90 L 404.40 815.80 L 401.70 810.60 L 397.60 796.30 L 395.10 791.50 L 395.40 800.30 L 396.10 804.60 L 399.20 817.40 L 391.40 814.20 L 387.70 812.20 L 382.10 808.10 L 380.30 806.10 L 376.50 800.40 L 373.50 793.30 L 369.80 782.30 L 368.20 778.80 L 366.20 775.50 L 365.10 779.10 L 363.80 786.50 L 363.50 792.10 L 363.80 797.80 L 359.00 793.70 L 354.60 789.40 L 350.50 784.80 L 346.60 780.00 L 342.00 773.10 L 337.90 766.00 L 334.30 758.60 L 331.20 750.90 L 328.60 743.00 L 326.50 734.90 L 325.00 726.80 L 323.90 718.60 L 323.30 710.40 Z" fill="#d2cddf" fill-rule="nonzero" node-id="222" stroke="none" target-height="114.5" target-width="102.30002" target-x="323.3" target-y="705.7"></path><path d="M 702.20 711.80 L 712.10 718.00 L 711.90 725.60 L 711.10 733.00 L 709.90 740.40 L 708.10 747.60 L 705.90 754.80 L 703.20 761.80 L 700.20 768.70 L 696.80 775.40 L 691.70 784.10 L 686.10 792.40 L 680.10 800.30 L 680.50 790.90 L 679.70 784.60 L 678.70 781.80 L 677.70 780.20 L 674.60 777.20 L 670.90 791.80 L 669.50 796.60 L 667.60 801.20 L 665.20 805.60 L 661.00 810.80 L 650.60 819.20 L 650.40 806.40 L 649.30 798.00 L 648.30 793.90 L 647.20 798.20 L 644.30 815.70 L 643.20 820.10 L 636.40 820.80 L 634.10 820.80 L 631.90 820.50 L 629.80 819.50 L 628.10 815.90 L 626.20 808.30 L 624.50 796.50 L 610.90 788.60 L 618.40 785.50 L 649.70 775.80 L 657.20 772.70 L 662.00 770.30 L 666.60 767.50 L 671.00 764.20 L 675.90 759.30 L 680.40 754.20 L 684.40 748.70 L 688.10 742.90 L 694.50 730.80 L 698.60 721.40 L 702.20 711.80 Z" fill="#d1cbde" fill-rule="nonzero" node-id="224" stroke="none" target-height="109" target-width="101.19995" target-x="610.9" target-y="711.8"></path><path d="M 444.60 740.70 L 460.00 756.10 L 468.80 764.40 L 476.40 770.10 L 480.60 772.50 L 485.00 774.50 L 489.70 776.10 L 496.30 777.70 L 509.90 780.00 L 516.90 780.60 L 523.80 780.80 L 530.70 780.60 L 537.60 779.90 L 544.30 778.70 L 551.00 776.90 L 555.80 775.20 L 565.10 770.80 L 569.50 768.00 L 573.80 764.90 L 585.60 754.30 L 589.70 751.10 L 594.20 748.30 L 590.30 762.80 L 588.60 770.10 L 586.70 782.50 L 586.50 792.40 L 586.90 797.30 L 587.80 802.30 L 589.10 807.20 L 566.40 809.40 L 543.70 811.20 L 528.50 812.00 L 513.30 812.40 L 498.10 812.30 L 482.90 811.70 L 467.80 810.50 L 452.70 808.60 L 454.50 802.80 L 455.60 797.10 L 456.10 791.40 L 456.10 785.60 L 455.60 779.90 L 454.70 774.20 L 452.70 765.70 L 450.30 757.20 L 444.60 740.70 Z" fill="#d4cddc" fill-rule="nonzero" node-id="226" stroke="none" target-height="71.70001" target-width="149.6" target-x="444.6" target-y="740.7"></path><path d="M 424.50 785.70 L 430.00 785.90 L 434.60 787.60 L 438.50 790.60 L 441.60 795.10 L 438.40 804.20 L 435.30 809.70 L 433.40 812.20 L 431.20 814.30 L 428.50 816.00 L 425.40 817.30 L 424.80 809.30 L 423.50 801.40 L 422.40 797.60 L 420.70 793.90 L 419.50 798.20 L 419.60 811.20 L 419.20 814.40 L 418.70 816.50 L 417.70 818.40 L 416.20 820.20 L 416.60 795.90 L 425.60 791.00 L 424.50 785.70 Z" fill="#ecedf2" fill-rule="nonzero" node-id="228" stroke="none" target-height="34.5" target-width="25.399994" target-x="416.2" target-y="785.7"></path><path d="M 661.30 829.90 L 677.60 819.60 L 687.90 812.00 L 692.60 807.70 L 695.50 804.60 L 700.50 797.50 L 727.50 801.50 L 736.30 803.40 L 742.10 805.00 L 747.80 807.10 L 753.30 809.60 L 755.00 810.90 L 755.80 812.10 L 756.00 813.10 L 755.10 815.20 L 754.10 816.20 L 749.90 818.70 L 745.80 820.20 L 735.40 822.80 L 725.00 825.00 L 714.50 826.80 L 693.20 829.20 L 682.60 829.80 L 661.30 829.90 Z" fill="#a393aa" fill-rule="nonzero" node-id="230" stroke="none" target-height="32.400024" target-width="94.70001" target-x="661.3" target-y="797.5"></path><path d="M 457.40 883.80 L 459.40 882.10 L 461.60 880.80 L 464.00 880.00 L 471.60 878.30 L 471.50 880.30 L 471.80 881.70 L 472.30 882.80 L 473.70 884.10 L 475.60 885.00 L 480.10 886.00 L 478.80 893.80 L 476.90 894.30 L 475.20 894.20 L 468.10 891.90 L 470.40 883.60 L 466.40 883.40 L 464.90 883.80 L 462.50 885.60 L 461.60 886.80 L 460.80 889.60 L 461.30 892.80 L 462.00 894.40 L 463.10 896.00 L 465.80 895.80 L 468.00 897.30 L 470.60 901.90 L 466.90 901.50 L 463.30 901.70 L 459.80 902.40 L 460.20 904.20 L 461.60 906.50 L 463.30 907.50 L 465.40 908.00 L 467.60 908.10 L 469.90 907.70 L 474.20 906.40 L 472.40 896.70 L 480.80 901.40 L 479.60 904.20 L 478.00 906.50 L 476.00 908.40 L 473.70 909.90 L 471.10 911.00 L 468.40 911.70 L 465.60 912.00 L 462.80 911.80 L 459.90 911.20 L 458.50 909.90 L 456.50 906.90 L 455.70 903.40 L 455.90 901.70 L 456.50 900.10 L 457.50 898.60 L 459.00 897.30 L 457.50 895.20 L 456.50 893.10 L 455.90 890.80 L 455.90 888.40 L 456.40 886.10 L 457.40 883.80 Z" fill="#512d37" fill-rule="nonzero" node-id="232" stroke="none" target-height="33.700012" target-width="25.099976" target-x="455.7" target-y="878.3"></path><path d="M 562.10 885.20 L 563.50 883.30 L 565.10 879.60 L 565.90 878.80 L 566.80 878.40 L 568.00 878.60 L 574.00 886.40 L 568.20 887.60 L 570.20 901.30 L 564.60 901.00 L 563.90 893.00 L 563.20 889.10 L 562.10 885.20 Z" fill="#453034" fill-rule="nonzero" node-id="234" stroke="none" target-height="22.899963" target-width="11.900024" target-x="562.1" target-y="878.4"></path></svg>